<svg width="75" height="149" viewBox="0 0 75 149" fill="none" xmlns="http://www.w3.org/2000/svg">
<path d="M75 22.4475C75 18.8867 71.4182 16 67 16C62.5818 16 59 18.8867 59 22.4475V59.5525C59 63.1133 62.5818 66 67 66C71.4182 66 75 63.1133 75 59.5525V22.4475Z" fill="#B3E59F"/>
<path d="M66.757 82C62.473 82 59 84.8867 59 88.4476V125.552C59 129.113 62.473 132 66.757 132C71.041 132 74.514 129.113 74.514 125.552V88.4476C74.514 84.8867 71.041 82 66.757 82Z" fill="#B3E59F"/>
<path d="M14.317 7.95596C14.317 12.24 17.79 15.713 22.074 15.713H53.941C58.225 15.713 61.698 12.24 61.698 7.95596C61.698 3.67196 58.225 0.198975 53.941 0.198975H22.074C17.79 0.198975 14.317 3.67196 14.317 7.95596Z" fill="#B3E59F"/>
<path d="M14 73.757C14 78.041 17.473 81.514 21.757 81.514H53.624C57.908 81.514 61.381 78.041 61.381 73.757C61.381 69.473 57.908 66 53.624 66H21.757C17.473 66 14 69.473 14 73.757Z" fill="#B3E59F"/>
<path d="M53.941 133.453H22.074C17.79 133.453 14.317 136.926 14.317 141.21C14.317 145.494 17.79 148.967 22.074 148.967H53.941C58.225 148.967 61.698 145.494 61.698 141.21C61.698 136.926 58.225 133.453 53.941 133.453Z" fill="#B3E59F"/>
</svg>
