<svg width="75" height="149" viewBox="0 0 75 149" fill="none" xmlns="http://www.w3.org/2000/svg">
<path d="M75 22.4475C75 18.8867 71.4182 16 67 16C62.5818 16 59 18.8867 59 22.4475V59.5525C59 63.1133 62.5818 66 67 66C71.4182 66 75 63.1133 75 59.5525V22.4475Z" fill="#B3E59F"/>
<path d="M16 22.4475C16 18.8867 12.4182 16 8 16C3.5818 16 0 18.8867 0 22.4475V59.5525C0 63.1133 3.5818 66 8 66C12.4182 66 16 63.1133 16 59.5525V22.4475Z" fill="#B3E59F"/>
<path d="M66.757 82C62.473 82 59 84.8867 59 88.4476V125.552C59 129.113 62.473 132 66.757 132C71.041 132 74.514 129.113 74.514 125.552V88.4476C74.514 84.8867 71.041 82 66.757 82Z" fill="#B3E59F"/>
<path d="M14 73.757C14 78.041 17.473 81.514 21.757 81.514H53.624C57.908 81.514 61.381 78.041 61.381 73.757C61.381 69.473 57.908 66 53.624 66H21.757C17.473 66 14 69.473 14 73.757Z" fill="#B3E59F"/>
</svg>
