<svg width="75" height="149" viewBox="0 0 75 149" fill="none" xmlns="http://www.w3.org/2000/svg">
<path d="M75 8.51072C75 3.81046 71.4182 0 67 0C62.5818 0 59 3.81046 59 8.51072V57.4893C59 62.1895 62.5818 66 67 66C71.4182 66 75 62.1895 75 57.4893V8.51072Z" fill="#B3E59F"/>
<path d="M16 8.51072C16 3.81046 12.4182 0 8 0C3.5818 0 0 3.81046 0 8.51072V57.4893C0 62.1895 3.5818 66 8 66C12.4182 66 16 62.1895 16 57.4893V8.51072Z" fill="#B3E59F"/>
<path d="M67 82C62.5818 82 59 85.8682 59 90.6398V140.36C59 145.132 62.5818 149 67 149C71.4182 149 75 145.132 75 140.36V90.6398C75 85.8682 71.4182 82 67 82Z" fill="#B3E59F"/>
<path d="M14 73.757C14 78.041 17.473 81.514 21.757 81.514H53.624C57.908 81.514 61.381 78.041 61.381 73.757C61.381 69.473 57.908 66 53.624 66H21.757C17.473 66 14 69.473 14 73.757Z" fill="#B3E59F"/>
</svg>
