<svg width="716" height="295" viewBox="0 0 716 295" fill="none" xmlns="http://www.w3.org/2000/svg">
<rect x="78" y="261" width="94" height="34" rx="10" fill="#A6AEC4"/>
<rect x="544" y="261" width="94" height="34" rx="10" fill="#A6AEC4"/>
<path d="M42.6468 261H673.353C696.906 261 716 238.073 716 221.244V30.473C716 13.6437 696.906 0 673.353 0H42.6468C19.0929 0 0 13.6437 0 30.473V221.244C0 238.073 19.0929 261 42.6468 261Z" fill="#A6AEC4"/>
<path d="M669 217.735V38.1472C669 35.3048 665.769 33 661.784 33H54.2163C50.2313 33 47 35.3048 47 38.1472V217.735L353.024 227L669 217.735Z" fill="#434D59"/>
<path d="M54.2163 236H661.784C665.769 236 669 233.761 669 231V218H47V231C47 233.761 50.2299 236 54.2163 236Z" fill="#3B434D"/>
<path d="M673.353 251.448H42.6467C19.0929 251.448 0 237.816 0 221V239.552C0 256.367 19.0929 270 42.6467 270H673.353C696.906 270 716 256.367 716 239.552V221C716 237.816 696.906 251.448 673.353 251.448Z" fill="#959DB0"/>
<path d="M318.881 88.746C318.881 84.462 315.408 80.989 311.124 80.989C306.84 80.989 303.367 84.462 303.367 88.746V104.025C303.367 108.309 306.84 111.782 311.124 111.782C315.408 111.782 318.881 108.309 318.881 104.025V88.746Z" fill="#B3E59F"/>
<path d="M311.124 153.042C306.84 153.042 303.367 156.515 303.367 160.799V176.078C303.367 180.362 306.84 183.835 311.124 183.835C315.408 183.835 318.881 180.362 318.881 176.078V160.799C318.881 156.515 315.408 153.042 311.124 153.042Z" fill="#B3E59F"/>
</svg>
