<svg width="66" height="44" viewBox="0 0 66 44" fill="none" xmlns="http://www.w3.org/2000/svg">
<path d="M35 40.9051C35 42.6144 36.7909 44 39 44C41.2091 44 43 42.6144 43 40.9051V23.0949C43 21.3856 41.2091 20 39 20C36.7909 20 35 21.3856 35 23.0949V40.9051Z" fill="#B3E59F"/>
<path d="M56.0001 40.9051C56.0001 42.6144 57.791 44 60.0001 44C62.2092 44 64.0001 42.6144 64.0001 40.9051V23.0949C64.0001 21.3856 62.2092 20 60.0001 20C57.791 20 56.0001 21.3856 56.0001 23.0949V40.9051Z" fill="#B3E59F"/>
<path d="M53.7818 20.94L63.2696 7.88114C64.5451 6.12558 64.1302 3.64971 62.343 2.35123C60.5558 1.05276 58.0729 1.4233 56.7975 3.17886L47.3096 16.2377C46.0341 17.9933 46.449 20.4692 48.2362 21.7676C50.0235 23.0668 52.5063 22.6956 53.7818 20.94Z" fill="#B3E59F"/>
<path d="M36.6966 8.93818L46.8712 21.4694C48.239 23.154 50.7382 23.3908 52.4532 21.9984C54.1682 20.6059 54.4496 18.1114 53.0818 16.4267L42.9072 3.89553C41.5394 2.21091 39.0402 1.97407 37.3252 3.36653C35.6095 4.75893 35.3288 7.25356 36.6966 8.93818Z" fill="#B3E59F"/>
<path d="M35 22.9051C35 24.6144 36.7909 26 39 26C41.2091 26 43 24.6144 43 22.9051V5.09485C43 3.38564 41.2091 2 39 2C36.7909 2 35 3.38564 35 5.09485V22.9051Z" fill="#B3E59F"/>
<path d="M56.0001 22.9051C56.0001 24.6144 57.791 26 60.0001 26C62.2092 26 64.0001 24.6144 64.0001 22.9051V5.09485C64.0001 3.38564 62.2092 2 60.0001 2C57.791 2 56.0001 3.38564 56.0001 5.09485V22.9051Z" fill="#B3E59F"/>
<path d="M0 40.9051C0 42.6144 1.79091 44 4.00001 44C6.20911 44 8 42.6144 8 40.9051V23.0949C8 21.3856 6.20911 20 4.00001 20C1.79091 20 0 21.3856 0 23.0949V40.9051Z" fill="#B3E59F"/>
<path d="M5.92917 27H22.0708C24.2408 27 26 25.2091 26 23C26 20.7909 24.2408 19 22.0708 19H5.92917C3.75918 19 2 20.7909 2 23C1.99949 25.2096 3.75918 27 5.92917 27Z" fill="#B3E59F"/>
<path d="M0 22.9051C0 24.6144 1.79091 26 4.00001 26C6.20911 26 8 24.6144 8 22.9051V5.09485C8 3.38564 6.20911 2 4.00001 2C1.79091 2 0 3.38564 0 5.09485V22.9051Z" fill="#B3E59F"/>
<path d="M18 22.9051C18 24.6144 19.7909 26 22 26C24.2091 26 26 24.6144 26 22.9051V5.09485C26 3.38564 24.2091 2 22 2C19.7909 2 18 3.38564 18 5.09485V22.9051Z" fill="#B3E59F"/>
<path d="M4.92917 10H21.0708C23.2408 10 25 8.20909 25 5.99999C25 3.79089 23.2408 2 21.0708 2H4.92917C2.75918 2 1 3.79089 1 5.99999C0.999494 8.20961 2.75918 10 4.92917 10Z" fill="#B3E59F"/>
</svg>
